<?xml version="1.0" encoding="UTF-8"?>
<!DOCTYPE svg PUBLIC "-//W3C//DTD SVG 1.1//EN" "http://www.w3.org/Graphics/SVG/1.1/DTD/svg11.dtd">
<svg version="1.1" xmlns="http://www.w3.org/2000/svg" xmlns:xlink="http://www.w3.org/1999/xlink" x="0" y="0" width="431.196" height="431.923" viewBox="0, 0, 431.196, 431.923">
  <g id="Layer_1" transform="translate(-89.037, -82.555)">
    <g>
      <g>
        <path d="M222.532,326.823 L222.532,379.46 C222.532,387.322 236.133,393.695 252.91,393.695 C269.687,393.695 283.288,387.322 283.288,379.46 L283.288,326.823" fill="#49A4C3"/>
        <path d="M222.532,326.823 L222.532,379.46 C222.532,387.322 236.133,393.695 252.91,393.695 C269.687,393.695 283.288,387.322 283.288,379.46 L283.288,326.823" fill-opacity="0" stroke="#000000" stroke-width="2"/>
      </g>
      <path d="M222.532,353.141 C222.532,361.003 236.133,367.377 252.91,367.377 C269.687,367.377 283.288,361.003 283.288,353.141" fill-opacity="0" stroke="#000000" stroke-width="2"/>
      <path d="M222.532,341.058 C222.532,348.92 236.133,355.293 252.91,355.293 C269.687,355.293 283.288,348.92 283.288,341.058" fill-opacity="0" stroke="#000000" stroke-width="2"/>
      <path d="M222.532,366.157 C222.532,374.019 236.133,380.393 252.91,380.393 C269.687,380.393 283.288,374.019 283.288,366.157" fill-opacity="0" stroke="#000000" stroke-width="2"/>
      <g>
        <path d="M252.91,341.058 C236.133,341.058 222.532,334.685 222.532,326.823 C222.532,318.961 236.133,312.587 252.91,312.587 C269.687,312.587 283.288,318.961 283.288,326.823 C283.288,334.685 269.687,341.058 252.91,341.058 z" fill="#49A4C3"/>
        <path d="M252.91,341.058 C236.133,341.058 222.532,334.685 222.532,326.823 C222.532,318.961 236.133,312.587 252.91,312.587 C269.687,312.587 283.288,318.961 283.288,326.823 C283.288,334.685 269.687,341.058 252.91,341.058 z" fill-opacity="0" stroke="#000000" stroke-width="2"/>
      </g>
    </g>
    <g>
      <path d="M110.515,191.151 C104.265,193.588 95.029,195.383 89.235,200.471 C88.142,204.058 91.83,206.663 94.22,208.884 C104.069,213.748 115.169,219.407 126.276,219.375 C134.914,219.35 144.044,217.372 151.616,212.249 C154.253,210.465 155.662,208.027 156.723,205.26 C157.034,202.976 157.213,200.738 155.507,199.047 C149.04,195.748 143.894,194.66 137.474,191.966 C129.467,190.554 117.139,191.131 110.515,191.151 z" fill="#C35C48" id="shapePath1"/>
      <path d="M105.491,159.214 C102.079,153.519 98.86,141.94 103.342,134.794 C104.046,134.638 104.286,132.557 104.94,132.65 C105.523,129.161 106.512,126.766 109.99,124.525 C119.799,120.319 132.179,121.688 141.12,128.149 C148.842,135.051 151.476,147.698 144.622,159.033 C142.08,159.24 141.073,158.193 138.567,157.79 C130.54,150.333 122.2,138.376 110.477,137.339 C102.385,141.103 107.952,154.902 105.491,159.214 z" fill="#403B38" id="shapePath2"/>
      <path d="M113.559,178.984 C113.82,181.497 113.983,185.104 113.924,188.045 C113.217,190.694 110.059,189.82 109.182,192.187 C109.301,201.685 116.269,216.267 126.936,214.32 C133.935,209.411 134.793,199.947 137.474,191.936 C132.71,189.765 128.911,183.648 124.625,179.631 C121.32,177.592 115.426,179.269 113.559,178.984 z" fill="#F8C27A" id="shapePath3"/>
      <path d="M102.494,151.932 C98.018,154.961 98.361,168.152 106.263,166.558 C113.974,163.136 104.435,149.454 102.494,151.932 z" fill="#F8C27A" id="shapePath4"/>
      <path d="M138.731,164.358 C146.443,169.178 146.253,152.871 140.087,151.634 C136.389,153.472 138.016,163.296 138.731,164.358 z" fill="#F8C27A" id="shapePath5"/>
      <path d="M113.559,181.443 C114.399,191.184 130.783,203.876 137.474,191.885 C130.763,188.37 132.954,183.927 132.772,178.855 C128.13,176.098 122.264,176.896 117.207,177.819 C115.78,180.108 114.335,182.006 113.559,181.443 z" fill="#D6A783" id="shapePath6"/>
      <path d="M110.304,135.752 C108.198,137.559 105.794,141.754 104.954,145.201 C104.601,161.611 111.08,190.568 127.085,188.821 C139.436,187.474 143.013,165.541 140.097,151.673 C134.705,141.388 117.743,135.182 110.304,135.752 z" fill="#F8C27A" id="shapePath7"/>
    </g>
    <g>
      <g>
        <path d="M138.49,156.013 L204.127,156.013 L204.127,231.134 L138.49,231.134 L138.49,156.013 z" fill="#C35C49"/>
        <path d="M138.49,156.013 L204.127,156.013 L204.127,231.134 L138.49,231.134 L138.49,156.013 z" fill-opacity="0" stroke="#000000" stroke-width="2" stroke-linejoin="round"/>
      </g>
      <text transform="matrix(1, 0, 0, 1, 154.855, 212.789)">
        <tspan x="-12.51" y="-8" font-family="HelveticaNeue-Bold" font-size="9" fill="#000000">10101</tspan>
        <tspan x="-12.51" y="3" font-family="HelveticaNeue-Bold" font-size="9" fill="#000000">00101</tspan>
        <tspan x="-12.51" y="14" font-family="HelveticaNeue-Bold" font-size="9" fill="#000000">01010</tspan>
      </text>
      <g>
        <path d="M168.025,190.376 C169.25,189.595 170.359,188.642 171.32,187.55 L174.785,189.593 L177.941,184.015 L174.482,181.976 C174.922,180.606 175.181,179.153 175.229,177.646 L179.163,176.938 L178.067,170.595 L174.134,171.303 C173.59,169.928 172.861,168.65 171.976,167.5 L174.548,164.373 L169.714,160.233 L167.145,163.358 C165.89,162.671 164.531,162.158 163.099,161.851 L163.099,157.775 L156.789,157.775 L156.789,161.851 C155.357,162.158 153.998,162.671 152.743,163.358 L150.174,160.233 L145.34,164.373 L147.911,167.501 C147.027,168.65 146.297,169.929 145.754,171.304 L141.82,170.596 L140.725,176.939 L144.658,177.647 C144.707,179.153 144.966,180.606 145.405,181.977 L141.947,184.015 L145.102,189.593 L148.567,187.551 C149.528,188.642 150.637,189.595 151.862,190.376 L150.494,194.212 L156.424,196.414 L157.79,192.584 C158.494,192.686 159.213,192.74 159.944,192.74 C160.675,192.74 161.394,192.686 162.098,192.584 L163.464,196.415 L169.393,194.211 L168.025,190.376 z M159.944,185.353 C155.5,185.353 151.885,181.663 151.885,177.128 C151.885,172.592 155.5,168.902 159.944,168.902 C164.387,168.902 168.002,172.592 168.002,177.128 C168.002,181.663 164.387,185.353 159.944,185.353 z" fill="#000000"/>
        <path d="M195.148,195.212 L192.428,196.111 C191.91,195.19 191.268,194.357 190.53,193.632 L192.05,191.155 L188.223,188.708 L186.703,191.182 C185.748,190.822 184.735,190.595 183.689,190.522 L183.295,187.632 L178.821,188.269 L179.215,191.158 C178.23,191.52 177.316,192.022 176.493,192.635 L174.369,190.678 L171.343,194.101 L173.468,196.06 C172.952,196.963 172.56,197.943 172.307,198.974 L169.45,198.868 L169.286,203.475 L172.144,203.581 C172.324,204.644 172.648,205.648 173.093,206.576 L170.838,208.37 L173.615,212.006 L175.874,210.209 C176.661,210.886 177.54,211.449 178.484,211.88 L177.885,214.737 L182.302,215.701 L182.9,212.847 C183.409,212.849 183.924,212.814 184.442,212.74 C184.96,212.666 185.465,212.555 185.954,212.413 L187.293,214.991 L191.284,212.831 L189.943,210.25 C190.736,209.572 191.43,208.785 192.006,207.914 L194.66,209.012 L196.357,204.739 L193.708,203.643 C193.887,202.627 193.929,201.571 193.819,200.497 L196.539,199.599 L195.148,195.212 z M183.728,207.503 C180.577,207.951 177.656,205.7 177.218,202.484 C176.778,199.268 178.984,196.287 182.135,195.839 C185.286,195.391 188.205,197.643 188.645,200.859 C189.083,204.074 186.878,207.054 183.728,207.503 z" fill="#000000"/>
        <path d="M201.242,179.234 L201.348,175.596 L199.092,175.528 C198.951,174.726 198.698,173.932 198.328,173.168 L200.099,171.74 L197.889,168.884 L196.118,170.312 C195.486,169.776 194.787,169.34 194.045,169.01 L194.503,166.751 L191.012,166.013 L190.553,168.27 C189.749,168.271 188.939,168.388 188.145,168.627 L187.075,166.599 L183.935,168.325 L185.005,170.353 C184.374,170.897 183.832,171.525 183.388,172.209 L181.29,171.357 L179.971,174.739 L182.071,175.592 C181.932,176.406 181.906,177.241 181.996,178.074 L179.853,178.798 L180.972,182.254 L183.115,181.531 C183.535,182.267 184.045,182.919 184.624,183.481 L183.439,185.441 L186.473,187.353 L187.661,185.39 C188.426,185.67 189.228,185.84 190.042,185.894 L190.368,188.177 L193.897,187.651 L193.572,185.371 C193.948,185.229 194.32,185.059 194.684,184.859 C195.048,184.659 195.392,184.436 195.715,184.193 L197.401,185.725 L199.772,183.007 L198.085,181.473 C198.49,180.749 198.791,179.972 198.983,179.166 L201.242,179.234 z M192.745,181.184 C190.534,182.399 187.766,181.552 186.576,179.296 C185.385,177.039 186.215,174.213 188.427,172.998 C190.637,171.783 193.404,172.631 194.596,174.887 C195.786,177.144 194.956,179.968 192.745,181.184 z" fill="#000000"/>
      </g>
      <g>
        <path d="M146.125,156.013 C146.809,143.342 151.367,124.335 171.878,123.882 C192.39,124.335 196.948,143.342 197.632,156.013" fill="#F8C27A"/>
        <path d="M146.125,156.013 C146.809,143.342 151.367,124.335 171.878,123.882 C192.39,124.335 196.948,143.342 197.632,156.013" fill-opacity="0" stroke="#000000" stroke-width="2"/>
      </g>
      <g>
        <path d="M146.125,156.013 L196.492,156.013" fill="#000000"/>
        <path d="M146.125,156.013 L196.492,156.013" fill-opacity="0" stroke="#000000" stroke-width="2"/>
      </g>
      <g>
        <path d="M160.303,148.765 L182.314,148.765" fill="#000000"/>
        <path d="M160.303,148.765 L182.314,148.765" fill-opacity="0" stroke="#000000" stroke-width="2"/>
      </g>
      <g>
        <g>
          <path d="M155.435,136.591 L167.621,136.666" fill="#000000"/>
          <path d="M155.435,136.591 L167.621,136.666" fill-opacity="0" stroke="#000000" stroke-width="2"/>
        </g>
        <g>
          <path d="M175.452,136.591 L187.638,136.666" fill="#000000"/>
          <path d="M175.452,136.591 L187.638,136.666" fill-opacity="0" stroke="#000000" stroke-width="2"/>
        </g>
      </g>
      <g>
        <path d="M155.435,129.494 L148.529,120.472" fill="#000000"/>
        <path d="M155.435,129.494 L148.529,120.472" fill-opacity="0" stroke="#000000" stroke-width="2"/>
      </g>
      <g>
        <path d="M149.61,116.377 C149.61,118.877 147.569,120.903 145.051,120.903 C142.534,120.903 140.493,118.877 140.493,116.377 C140.493,113.878 142.534,111.852 145.051,111.852 C147.569,111.852 149.61,113.878 149.61,116.377" fill="#000000"/>
        <path d="M149.61,116.377 C149.61,118.877 147.569,120.903 145.051,120.903 C142.534,120.903 140.493,118.877 140.493,116.377 C140.493,113.878 142.534,111.852 145.051,111.852 C147.569,111.852 149.61,113.878 149.61,116.377" fill-opacity="0" stroke="#000000" stroke-width="2"/>
      </g>
      <g>
        <path d="M187.638,129.494 L194.544,120.472" fill="#000000"/>
        <path d="M187.638,129.494 L194.544,120.472" fill-opacity="0" stroke="#000000" stroke-width="2"/>
      </g>
      <g>
        <path d="M193.463,116.377 C193.463,118.877 195.504,120.903 198.021,120.903 C200.539,120.903 202.579,118.877 202.579,116.377 C202.579,113.878 200.539,111.852 198.021,111.852 C195.504,111.852 193.463,113.878 193.463,116.377" fill="#000000"/>
        <path d="M193.463,116.377 C193.463,118.877 195.504,120.903 198.021,120.903 C200.539,120.903 202.579,118.877 202.579,116.377 C202.579,113.878 200.539,111.852 198.021,111.852 C195.504,111.852 193.463,113.878 193.463,116.377" fill-opacity="0" stroke="#000000" stroke-width="2"/>
      </g>
    </g>
    <g>
      <path d="M497.592,215.109 C498.737,215.406 498.931,215.577 500.164,215.706 C509.539,214.496 520.211,221.968 520.233,232.461 C511.714,232.461 502.717,232.581 494.24,232.717 C493.71,232.156 493.561,231.24 493.344,230.457 C492.561,224.305 492.076,217.692 497.592,215.109 z" fill="#302F52" id="shapePath1"/>
      <path d="M460.006,155.391 C458.621,155.658 457.364,156.538 456.3,157.532 C445.979,169.888 442.207,192.835 457.01,203.115 C458.153,203.955 458.924,205.115 459.389,206.533 C458.497,214.794 452.641,225.225 458.386,232.789 C464.321,232.678 471.432,232.72 477.511,232.581 C478.445,231.738 477.901,230.581 478.746,229.625 C481.052,220.575 481.57,211.254 482.137,201.969 C483.872,195.313 486.902,188.837 486.777,181.751 C484.415,173.383 481.718,165.136 477.819,157.532 C472.53,153.301 464.587,151.599 458.977,154.941 L460.006,155.391 z" fill="#F1B99E" id="shapePath2"/>
      <path d="M455.349,185.741 L447.222,193.521" fill="#969696" id="shapePath3"/>
      <path d="M448.151,177.221 C452.356,175.277 458.948,174.387 464.153,174.443 C468.383,170.836 474.473,168.412 480.745,168.33 C482.511,169.413 482.085,172.057 481.422,173.702 C482.665,183.228 468.321,184.478 466.015,177.221 C465.563,176.893 464.978,176.415 464.322,176.48 C463.946,176.848 463.802,177.7 463.475,178.147 C464.161,185.483 455.452,188.982 450.594,187.749" fill="#000000" id="shapePath4"/>
      <path d="M483.792,197.966 z" fill="#969696" id="shapePath5"/>
      <path d="M469.74,190.187 L475.158,190.187" fill="#969696" id="shapePath6"/>
      <path d="M475.158,203.894 L480.237,201.671" fill="#969696" id="shapePath7"/>
      <path d="M468.385,205.561 z" fill="#969696" id="shapePath8"/>
      <path d="M458.874,155.617 z" fill="#B17749" id="shapePath9"/>
      <path d="M483.688,192.339 L492.132,184.679" fill="#F1B99E" fill-opacity="0.522" id="shapePath10"/>
      <path d="M477.511,198.422 C478.427,198.356 479.6,196.974 480.599,196.395" fill="#F1B99E" fill-opacity="0.522" id="shapePath11"/>
      <path d="M461.491,202.195 C464.05,203.858 466.794,205.284 470.083,205.236 C472.395,204.562 474.846,203.69 476.685,201.969 C479.329,199.838 480.644,195.197 482.657,193.521 C483.715,198.009 481.196,202.883 478.361,205.912 C472.832,211.11 464.375,206.922 461.491,202.195 z" fill="#B87D5D" id="shapePath12"/>
      <path d="M493.5,212.466 C495.539,213.773 497.724,215.466 500.28,215.578 C498.332,218.55 495.465,222.264 494.786,225.767 C491.142,223.164 492.216,216.003 493.5,212.466 z" fill="#F1B99E" id="shapePath13"/>
      <path d="M455.679,149.414 C445.801,155.342 441.646,171.696 443.489,184.052 C441.874,187.201 440.02,190.25 438.748,193.869 C438.588,195.576 438.283,197.217 438.41,199.055 C438.674,200.562 439.173,201.841 439.595,203.315 C446.623,210.65 442.727,222.856 437.055,229.247 C436.132,230.083 434.304,231.598 435.006,232.373 C443.34,232.581 453.674,232.581 461.774,232.581 C461.389,228.976 459.08,225.626 459.065,221.653 C458.502,214.215 464.423,209.892 461.774,202.204 C454.562,198.289 452.6,188.173 449.245,181.088 L449.245,177.198 C453.566,169.897 454.405,157.549 463.467,155.342 C464.048,154.836 464.86,154.498 465.33,154.045 C473.49,154.313 479.327,163.516 482.091,172.012 C484.147,181.976 480.892,192.013 479.043,202.019 C478.774,203.476 478.583,204.935 478.705,206.464 C480.75,215.102 476.695,222.719 474.98,230.914 C475.518,231.247 475.695,232.118 476.116,232.581 C481.914,232.581 489.158,232.581 494.724,232.581 C494.236,229.076 495.26,224.664 495.297,221.097 C495.342,216.488 494.364,212.054 493.942,207.575 C490.689,197.109 489.786,186.414 488.863,175.161 C486.032,165.676 481.789,154.905 473.456,148.859 C470.789,147.616 467.238,146.156 463.878,146.31 C460.01,146.489 458.085,147.971 455.679,149.414 z" fill="#C8A387" id="shapePath14"/>
      <path d="M506.243,226.876 L513.179,219.245" fill="#969696" id="shapePath15"/>
    </g>
    <g>
      <g>
        <path d="M380.082,164.496 L445.72,164.496 L445.72,239.618 L380.082,239.618 L380.082,164.496 z" fill="#302F52"/>
        <path d="M380.082,164.496 L445.72,164.496 L445.72,239.618 L380.082,239.618 L380.082,164.496 z" fill-opacity="0" stroke="#000000" stroke-width="2" stroke-linejoin="round"/>
      </g>
      <text transform="matrix(1, 0, 0, 1, 396.448, 221.272)">
        <tspan x="-12.51" y="-8" font-family="HelveticaNeue-Bold" font-size="9" fill="#000000">10101</tspan>
        <tspan x="-12.51" y="3" font-family="HelveticaNeue-Bold" font-size="9" fill="#000000">00101</tspan>
        <tspan x="-12.51" y="14" font-family="HelveticaNeue-Bold" font-size="9" fill="#000000">01010</tspan>
      </text>
      <g>
        <path d="M409.618,198.859 C410.843,198.078 411.952,197.126 412.913,196.034 L416.378,198.076 L419.533,192.498 L416.075,190.46 C416.515,189.09 416.773,187.637 416.822,186.13 L420.756,185.422 L419.66,179.079 L415.726,179.787 C415.183,178.412 414.453,177.133 413.569,175.984 L416.14,172.857 L411.306,168.717 L408.737,171.841 C407.482,171.155 406.124,170.642 404.691,170.334 L404.691,166.259 L398.381,166.259 L398.381,170.334 C396.949,170.642 395.59,171.155 394.335,171.841 L391.766,168.717 L386.932,172.857 L389.503,175.984 C388.619,177.133 387.89,178.412 387.346,179.787 L383.413,179.079 L382.317,185.422 L386.251,186.13 C386.299,187.637 386.558,189.09 386.998,190.461 L383.539,192.498 L386.695,198.076 L390.16,196.035 C391.121,197.126 392.23,198.079 393.455,198.86 L392.087,202.695 L398.017,204.898 L399.383,201.068 C400.087,201.169 400.805,201.223 401.536,201.223 C402.267,201.223 402.986,201.169 403.69,201.068 L405.056,204.898 L410.986,202.695 L409.618,198.859 z M401.536,193.836 C397.093,193.836 393.478,190.147 393.478,185.611 C393.478,181.076 397.093,177.386 401.536,177.386 C405.98,177.386 409.595,181.076 409.595,185.611 C409.595,190.147 405.98,193.836 401.536,193.836 z" fill="#000000"/>
        <path d="M436.741,203.696 L434.021,204.594 C433.502,203.674 432.861,202.841 432.123,202.116 L433.643,199.639 L429.815,197.191 L428.296,199.666 C427.34,199.305 426.327,199.079 425.282,199.005 L424.887,196.116 L420.414,196.752 L420.808,199.642 C419.823,200.004 418.908,200.505 418.085,201.118 L415.962,199.162 L412.935,202.584 L415.061,204.543 C414.545,205.447 414.152,206.427 413.9,207.457 L411.042,207.352 L410.879,211.959 L413.736,212.065 C413.917,213.128 414.241,214.132 414.685,215.059 L412.431,216.853 L415.207,220.489 L417.467,218.692 C418.254,219.369 419.132,219.933 420.076,220.363 L419.477,223.221 L423.895,224.184 L424.493,221.331 C425.002,221.332 425.516,221.297 426.034,221.224 C426.553,221.15 427.058,221.039 427.546,220.896 L428.886,223.474 L432.877,221.314 L431.536,218.733 C432.329,218.056 433.022,217.268 433.598,216.397 L436.252,217.496 L437.95,213.223 L435.301,212.127 C435.479,211.111 435.522,210.054 435.411,208.981 L438.132,208.082 L436.741,203.696 z M425.32,215.987 C422.169,216.434 419.249,214.183 418.81,210.967 C418.371,207.752 420.577,204.77 423.728,204.323 C426.878,203.874 429.798,206.126 430.238,209.342 C430.676,212.558 428.47,215.538 425.32,215.987 z" fill="#000000"/>
        <path d="M442.835,187.718 L442.941,184.08 L440.685,184.011 C440.544,183.209 440.291,182.415 439.92,181.652 L441.692,180.223 L439.481,177.368 L437.71,178.796 C437.078,178.26 436.38,177.823 435.638,177.493 L436.096,175.235 L432.605,174.496 L432.146,176.754 C431.341,176.755 430.531,176.872 429.737,177.11 L428.668,175.082 L425.528,176.808 L426.598,178.837 C425.966,179.381 425.424,180.009 424.98,180.693 L422.882,179.84 L421.563,183.222 L423.663,184.076 C423.525,184.89 423.498,185.724 423.589,186.558 L421.446,187.281 L422.565,190.737 L424.708,190.014 C425.128,190.751 425.638,191.402 426.217,191.964 L425.031,193.924 L428.065,195.837 L429.253,193.873 C430.018,194.153 430.82,194.324 431.635,194.377 L431.96,196.66 L435.489,196.134 L435.164,193.854 C435.541,193.713 435.913,193.543 436.276,193.343 C436.641,193.143 436.984,192.919 437.307,192.676 L438.993,194.208 L441.365,191.491 L439.678,189.957 C440.082,189.233 440.383,188.455 440.576,187.649 L442.835,187.718 z M434.338,189.668 C432.126,190.883 429.359,190.036 428.168,187.779 C426.977,185.522 427.807,182.697 430.019,181.482 C432.23,180.266 434.997,181.114 436.188,183.371 C437.378,185.628 436.548,188.452 434.338,189.668 z" fill="#000000"/>
      </g>
      <g>
        <path d="M387.717,164.496 C388.401,151.825 392.959,132.818 413.471,132.366 C433.983,132.818 438.541,151.825 439.224,164.496" fill="#F1B99E"/>
        <path d="M387.717,164.496 C388.401,151.825 392.959,132.818 413.471,132.366 C433.983,132.818 438.541,151.825 439.224,164.496" fill-opacity="0" stroke="#000000" stroke-width="2"/>
      </g>
      <g>
        <path d="M387.717,164.496 L438.085,164.496" fill="#000000"/>
        <path d="M387.717,164.496 L438.085,164.496" fill-opacity="0" stroke="#000000" stroke-width="2"/>
      </g>
      <g>
        <path d="M401.895,157.249 L423.907,157.249" fill="#000000"/>
        <path d="M401.895,157.249 L423.907,157.249" fill-opacity="0" stroke="#000000" stroke-width="2"/>
      </g>
      <g>
        <g>
          <path d="M397.027,145.074 L409.214,145.15" fill="#000000"/>
          <path d="M397.027,145.074 L409.214,145.15" fill-opacity="0" stroke="#000000" stroke-width="2"/>
        </g>
        <g>
          <path d="M417.044,145.074 L429.231,145.15" fill="#000000"/>
          <path d="M417.044,145.074 L429.231,145.15" fill-opacity="0" stroke="#000000" stroke-width="2"/>
        </g>
      </g>
      <g>
        <path d="M397.027,137.977 L390.121,128.956" fill="#000000"/>
        <path d="M397.027,137.977 L390.121,128.956" fill-opacity="0" stroke="#000000" stroke-width="2"/>
      </g>
      <g>
        <path d="M391.202,124.861 C391.202,127.36 389.161,129.386 386.644,129.386 C384.127,129.386 382.086,127.36 382.086,124.861 C382.086,122.361 384.127,120.335 386.644,120.335 C389.161,120.335 391.202,122.361 391.202,124.861" fill="#000000"/>
        <path d="M391.202,124.861 C391.202,127.36 389.161,129.386 386.644,129.386 C384.127,129.386 382.086,127.36 382.086,124.861 C382.086,122.361 384.127,120.335 386.644,120.335 C389.161,120.335 391.202,122.361 391.202,124.861" fill-opacity="0" stroke="#000000" stroke-width="2"/>
      </g>
      <g>
        <path d="M429.231,137.977 L436.137,128.956" fill="#000000"/>
        <path d="M429.231,137.977 L436.137,128.956" fill-opacity="0" stroke="#000000" stroke-width="2"/>
      </g>
      <g>
        <path d="M435.056,124.861 C435.056,127.36 437.096,129.386 439.614,129.386 C442.131,129.386 444.172,127.36 444.172,124.861 C444.172,122.361 442.131,120.335 439.614,120.335 C437.096,120.335 435.056,122.361 435.056,124.861" fill="#000000"/>
        <path d="M435.056,124.861 C435.056,127.36 437.096,129.386 439.614,129.386 C442.131,129.386 444.172,127.36 444.172,124.861 C444.172,122.361 442.131,120.335 439.614,120.335 C437.096,120.335 435.056,122.361 435.056,124.861" fill-opacity="0" stroke="#000000" stroke-width="2"/>
      </g>
    </g>
    <path d="M291.776,84.445 C290.569,83.438 290.788,84.692 290.584,84.743" fill-opacity="0" stroke="#000000" stroke-width="1" stroke-linecap="round" stroke-linejoin="round"/>
    <g>
      <path d="M472.491,476.324 C465.964,480.235 456.755,482.433 449.812,486.545 C449.179,488.182 450.49,489.084 452.475,490.753 C462.068,497.235 473.515,501.491 484.947,501.832 C493.842,502.098 502.683,497.285 509.946,492.471 C513.305,490.244 516.054,487.918 516.054,487.008 C516.054,485.592 511.917,484.755 508.83,483.281 C503.88,480.917 498.364,478.334 493.538,476.668 C488.757,479.824 477.293,481.98 472.491,476.066 L472.491,476.324 z" fill="#4AB09B" id="shapePath1"/>
      <path d="M466.735,434.583 C466.353,435.708 466.075,436.78 465.876,437.933 C467.884,446.313 467.948,455.558 471.804,463.441 L473.951,464.386 C480.845,463.042 487.854,464.229 494.483,463.441 C498.998,455.373 498.684,445.143 500.067,435.871 C499.569,434.378 499.775,432.505 498.349,431.491 C497.317,431.09 496.193,430.865 495.084,431.062 C493.868,431.249 492.677,431.628 491.476,431.835 C484.16,435.76 472.002,430.164 466.907,434.755" fill="#AE8571" id="shapePath2"/>
      <path d="M465.875,444.469 C458.132,444.297 464.583,459.012 467.765,456.321" fill="#AE8571" id="shapePath5"/>
      <path d="M500.082,444.467 C500.733,444.466 501.281,444.595 501.735,444.826 C505.821,446.905 502.055,457.35 497.848,456.965" fill="#AE8571" id="shapePath7"/>
      <path d="M466.016,448.796 C466.216,447.385 464.073,435.476 464.126,433.809 C460.724,421.553 477.291,413.254 487.579,417.491 C492.214,420.577 499.81,421.968 499.95,428.913 C500.752,430.182 502.25,430.775 502.613,432.349 C502.596,433.33 502.606,434.306 502.699,435.269 C501.18,436.897 501.333,441.868 500.465,443.772 L496.17,447.578 L497.287,442.269 C497.287,437.432 499.95,436.686 496.513,433.551 C488.846,438.662 478.772,432.587 470.226,433.723 C463.946,434.558 466.748,442.638 468.422,446.757 M466.016,448.796 C466.418,451.817 467.372,454.684 467.649,456.397 C468.539,461.908 467.29,468.179 469.882,473.317 C472.375,478.258 478.857,481.199 484.486,481.218 C490.716,480.405 495.833,474.308 496.513,471.945 C497.373,468.96 497.409,461.029 498.146,456.998 C498.764,453.614 500.351,447.217 500.465,443.772 L496.17,447.578 C494.905,451.798 498.417,460.567 492.39,462.323 C489.128,461.19 486.195,458.577 482.339,460.52 C479.164,458.424 476.482,462.037 473.49,462.753 C468.685,459.375 469.832,451.79 468.422,446.757 L466.016,448.796" fill="#D7D7D7" id="shapePath8"/>
      <path d="M470.761,477.128 C472.1,484.341 482.419,487.372 488.942,484.311 C491.566,482.83 494.553,480.267 495.125,477.325 C494.326,476.945 492.976,476.498 492.976,476.498 C492.976,476.498 488.942,479.963 486.795,480.435 C484.974,480.834 483.077,480.922 481.125,480.876 C478.012,480.802 471.916,476.498 471.916,476.498 C471.916,476.498 471.219,476.824 470.761,477.128 z" fill="#AE8571" id="shapePath10"/>
    </g>
    <g>
      <g>
        <path d="M402.901,437.856 L468.538,437.856 L468.538,512.978 L402.901,512.978 L402.901,437.856 z" fill="#4AB09B"/>
        <path d="M402.901,437.856 L468.538,437.856 L468.538,512.978 L402.901,512.978 L402.901,437.856 z" fill-opacity="0" stroke="#000000" stroke-width="2" stroke-linejoin="round"/>
      </g>
      <text transform="matrix(1, 0, 0, 1, 419.266, 494.632)">
        <tspan x="-12.51" y="-8" font-family="HelveticaNeue-Bold" font-size="9" fill="#000000">10101</tspan>
        <tspan x="-12.51" y="3" font-family="HelveticaNeue-Bold" font-size="9" fill="#000000">00101</tspan>
        <tspan x="-12.51" y="14" font-family="HelveticaNeue-Bold" font-size="9" fill="#000000">01010</tspan>
      </text>
      <g>
        <path d="M432.436,472.219 C433.661,471.438 434.77,470.485 435.731,469.393 L439.196,471.436 L442.351,465.858 L438.893,463.82 C439.333,462.45 439.591,460.996 439.64,459.49 L443.574,458.782 L442.478,452.439 L438.544,453.147 C438.001,451.772 437.272,450.493 436.387,449.344 L438.958,446.216 L434.125,442.076 L431.555,445.201 C430.301,444.515 428.942,444.002 427.51,443.694 L427.51,439.619 L421.2,439.619 L421.2,443.694 C419.767,444.002 418.408,444.515 417.154,445.201 L414.585,442.076 L409.751,446.216 L412.322,449.344 C411.437,450.493 410.708,451.772 410.164,453.147 L406.231,452.439 L405.135,458.782 L409.069,459.49 C409.117,460.997 409.376,462.45 409.816,463.82 L406.358,465.858 L409.513,471.436 L412.978,469.394 C413.939,470.486 415.048,471.438 416.273,472.219 L414.905,476.055 L420.835,478.257 L422.201,474.427 C422.905,474.529 423.624,474.583 424.355,474.583 C425.086,474.583 425.805,474.529 426.509,474.427 L427.874,478.258 L433.804,476.055 L432.436,472.219 z M424.354,467.196 C419.911,467.196 416.296,463.506 416.296,458.971 C416.296,454.435 419.911,450.745 424.354,450.745 C428.798,450.745 432.413,454.435 432.413,458.971 C432.413,463.506 428.798,467.196 424.354,467.196 z" fill="#000000"/>
        <path d="M459.559,477.056 L456.839,477.954 C456.32,477.034 455.679,476.201 454.941,475.475 L456.461,472.999 L452.634,470.551 L451.114,473.025 C450.158,472.665 449.146,472.438 448.1,472.365 L447.706,469.475 L443.232,470.112 L443.626,473.001 C442.641,473.364 441.727,473.865 440.904,474.478 L438.78,472.522 L435.754,475.944 L437.879,477.903 C437.363,478.807 436.97,479.787 436.718,480.817 L433.861,480.711 L433.697,485.319 L436.555,485.424 C436.735,486.488 437.059,487.491 437.504,488.419 L435.249,490.213 L438.026,493.849 L440.285,492.052 C441.072,492.729 441.951,493.292 442.894,493.723 L442.295,496.581 L446.713,497.544 L447.311,494.691 C447.82,494.692 448.335,494.657 448.853,494.583 C449.371,494.51 449.876,494.399 450.365,494.256 L451.704,496.834 L455.695,494.674 L454.354,492.093 C455.147,491.415 455.84,490.628 456.417,489.757 L459.071,490.856 L460.768,486.583 L458.119,485.486 C458.297,484.471 458.34,483.414 458.229,482.341 L460.95,481.442 L459.559,477.056 z M448.138,489.346 C444.988,489.794 442.067,487.543 441.629,484.327 C441.189,481.111 443.395,478.13 446.546,477.683 C449.696,477.234 452.616,479.486 453.056,482.702 C453.494,485.918 451.289,488.898 448.138,489.346 z" fill="#000000"/>
        <path d="M465.653,461.078 L465.759,457.439 L463.503,457.371 C463.362,456.569 463.109,455.775 462.738,455.012 L464.51,453.583 L462.3,450.728 L460.528,452.155 C459.897,451.62 459.198,451.183 458.456,450.853 L458.914,448.594 L455.423,447.856 L454.964,450.114 C454.16,450.115 453.349,450.231 452.556,450.47 L451.486,448.442 L448.346,450.168 L449.416,452.196 C448.784,452.741 448.242,453.368 447.798,454.053 L445.7,453.2 L444.382,456.582 L446.481,457.436 C446.343,458.249 446.316,459.084 446.407,459.917 L444.264,460.641 L445.383,464.097 L447.526,463.374 C447.946,464.11 448.456,464.762 449.035,465.324 L447.85,467.284 L450.883,469.196 L452.072,467.233 C452.836,467.513 453.639,467.684 454.453,467.737 L454.779,470.02 L458.308,469.494 L457.983,467.214 C458.359,467.073 458.731,466.902 459.095,466.702 C459.459,466.503 459.802,466.279 460.126,466.036 L461.811,467.568 L464.183,464.85 L462.496,463.316 C462.901,462.593 463.202,461.815 463.394,461.009 L465.653,461.078 z M457.156,463.027 C454.944,464.243 452.177,463.395 450.987,461.139 C449.796,458.882 450.626,456.056 452.837,454.842 C455.048,453.626 457.815,454.474 459.006,456.731 C460.196,458.988 459.367,461.812 457.156,463.027 z" fill="#000000"/>
      </g>
      <g>
        <path d="M410.536,437.856 C411.219,425.185 415.777,406.178 436.289,405.726 C456.801,406.178 461.359,425.185 462.043,437.856" fill="#AE8571"/>
        <path d="M410.536,437.856 C411.219,425.185 415.777,406.178 436.289,405.726 C456.801,406.178 461.359,425.185 462.043,437.856" fill-opacity="0" stroke="#000000" stroke-width="2"/>
      </g>
      <g>
        <path d="M410.536,437.856 L460.903,437.856" fill="#000000"/>
        <path d="M410.536,437.856 L460.903,437.856" fill-opacity="0" stroke="#000000" stroke-width="2"/>
      </g>
      <g>
        <path d="M424.714,430.608 L446.725,430.608" fill="#000000"/>
        <path d="M424.714,430.608 L446.725,430.608" fill-opacity="0" stroke="#000000" stroke-width="2"/>
      </g>
      <g>
        <g>
          <path d="M419.845,418.434 L432.032,418.51" fill="#000000"/>
          <path d="M419.845,418.434 L432.032,418.51" fill-opacity="0" stroke="#000000" stroke-width="2"/>
        </g>
        <g>
          <path d="M439.863,418.434 L452.049,418.51" fill="#000000"/>
          <path d="M439.863,418.434 L452.049,418.51" fill-opacity="0" stroke="#000000" stroke-width="2"/>
        </g>
      </g>
      <g>
        <path d="M419.845,411.337 L412.939,402.316" fill="#000000"/>
        <path d="M419.845,411.337 L412.939,402.316" fill-opacity="0" stroke="#000000" stroke-width="2"/>
      </g>
      <g>
        <path d="M414.02,398.22 C414.02,400.72 411.98,402.746 409.462,402.746 C406.945,402.746 404.904,400.72 404.904,398.22 C404.904,395.721 406.945,393.695 409.462,393.695 C411.98,393.695 414.02,395.721 414.02,398.22" fill="#000000"/>
        <path d="M414.02,398.22 C414.02,400.72 411.98,402.746 409.462,402.746 C406.945,402.746 404.904,400.72 404.904,398.22 C404.904,395.721 406.945,393.695 409.462,393.695 C411.98,393.695 414.02,395.721 414.02,398.22" fill-opacity="0" stroke="#000000" stroke-width="2"/>
      </g>
      <g>
        <path d="M452.049,411.337 L458.955,402.316" fill="#000000"/>
        <path d="M452.049,411.337 L458.955,402.316" fill-opacity="0" stroke="#000000" stroke-width="2"/>
      </g>
      <g>
        <path d="M457.874,398.22 C457.874,400.72 459.915,402.746 462.432,402.746 C464.949,402.746 466.99,400.72 466.99,398.22 C466.99,395.721 464.949,393.695 462.432,393.695 C459.915,393.695 457.874,395.721 457.874,398.22" fill="#000000"/>
        <path d="M457.874,398.22 C457.874,400.72 459.915,402.746 462.432,402.746 C464.949,402.746 466.99,400.72 466.99,398.22 C466.99,395.721 464.949,393.695 462.432,393.695 C459.915,393.695 457.874,395.721 457.874,398.22" fill-opacity="0" stroke="#000000" stroke-width="2"/>
      </g>
    </g>
    <g>
      <g>
        <path d="M247.52,329.472 L313.157,329.472 L313.157,404.593 L247.52,404.593 L247.52,329.472 z" fill="#49A4C3"/>
        <path d="M247.52,329.472 L313.157,329.472 L313.157,404.593 L247.52,404.593 L247.52,329.472 z" fill-opacity="0" stroke="#000000" stroke-width="2" stroke-linejoin="round"/>
      </g>
      <text transform="matrix(1, 0, 0, 1, 263.885, 386.248)">
        <tspan x="-12.51" y="-8" font-family="HelveticaNeue-Bold" font-size="9" fill="#000000">10101</tspan>
        <tspan x="-12.51" y="3" font-family="HelveticaNeue-Bold" font-size="9" fill="#000000">00101</tspan>
        <tspan x="-12.51" y="14" font-family="HelveticaNeue-Bold" font-size="9" fill="#000000">01010</tspan>
      </text>
      <g>
        <path d="M277.055,363.835 C278.28,363.054 279.389,362.101 280.35,361.009 L283.816,363.052 L286.971,357.473 L283.512,355.435 C283.952,354.065 284.211,352.612 284.259,351.105 L288.193,350.397 L287.097,344.054 L283.164,344.762 C282.62,343.387 281.891,342.108 281.007,340.959 L283.578,337.832 L278.744,333.692 L276.175,336.817 C274.92,336.13 273.561,335.617 272.129,335.31 L272.129,331.234 L265.819,331.234 L265.819,335.31 C264.387,335.617 263.028,336.13 261.773,336.817 L259.204,333.692 L254.37,337.832 L256.941,340.959 C256.057,342.109 255.327,343.387 254.784,344.763 L250.85,344.054 L249.755,350.398 L253.688,351.106 C253.737,352.612 253.996,354.065 254.435,355.436 L250.977,357.474 L254.132,363.052 L257.597,361.01 C258.558,362.101 259.667,363.054 260.892,363.835 L259.524,367.671 L265.454,369.873 L266.82,366.043 C267.524,366.145 268.243,366.198 268.974,366.198 C269.705,366.198 270.424,366.145 271.128,366.043 L272.494,369.873 L278.423,367.67 L277.055,363.835 z M268.974,358.812 C264.53,358.812 260.915,355.122 260.915,350.586 C260.915,346.051 264.53,342.361 268.974,342.361 C273.417,342.361 277.032,346.051 277.032,350.586 C277.032,355.122 273.417,358.812 268.974,358.812 z" fill="#000000"/>
        <path d="M304.179,368.671 L301.458,369.57 C300.94,368.649 300.298,367.816 299.56,367.091 L301.08,364.614 L297.253,362.167 L295.733,364.641 C294.778,364.281 293.765,364.054 292.719,363.98 L292.325,361.091 L287.851,361.728 L288.246,364.617 C287.26,364.979 286.346,365.481 285.523,366.094 L283.399,364.137 L280.373,367.56 L282.498,369.518 C281.983,370.422 281.59,371.402 281.337,372.432 L278.48,372.327 L278.316,376.934 L281.174,377.04 C281.354,378.103 281.678,379.107 282.123,380.035 L279.868,381.828 L282.645,385.465 L284.904,383.668 C285.691,384.345 286.57,384.908 287.514,385.339 L286.915,388.196 L291.332,389.16 L291.93,386.306 C292.439,386.308 292.954,386.273 293.472,386.199 C293.99,386.125 294.495,386.014 294.984,385.872 L296.324,388.45 L300.314,386.29 L298.973,383.709 C299.766,383.031 300.46,382.243 301.036,381.373 L303.69,382.471 L305.387,378.198 L302.738,377.102 C302.917,376.086 302.959,375.03 302.849,373.956 L305.569,373.058 L304.179,368.671 z M292.758,380.962 C289.607,381.41 286.687,379.158 286.248,375.943 C285.808,372.727 288.015,369.746 291.165,369.298 C294.316,368.85 297.235,371.101 297.675,374.318 C298.114,377.533 295.908,380.513 292.758,380.962 z" fill="#000000"/>
        <path d="M310.272,352.693 L310.378,349.055 L308.122,348.987 C307.981,348.185 307.728,347.391 307.358,346.627 L309.129,345.199 L306.919,342.343 L305.148,343.771 C304.516,343.235 303.817,342.798 303.076,342.469 L303.533,340.21 L300.042,339.472 L299.583,341.729 C298.779,341.73 297.969,341.847 297.175,342.086 L296.105,340.058 L292.965,341.784 L294.035,343.812 C293.404,344.356 292.862,344.984 292.418,345.668 L290.32,344.816 L289.001,348.198 L291.101,349.051 C290.962,349.865 290.936,350.7 291.026,351.533 L288.883,352.257 L290.002,355.713 L292.145,354.989 C292.565,355.726 293.075,356.377 293.654,356.94 L292.469,358.9 L295.503,360.812 L296.691,358.848 C297.456,359.129 298.258,359.299 299.072,359.353 L299.398,361.636 L302.927,361.11 L302.602,358.83 C302.978,358.688 303.35,358.518 303.714,358.318 C304.078,358.118 304.422,357.894 304.745,357.652 L306.431,359.184 L308.802,356.466 L307.115,354.932 C307.52,354.208 307.821,353.431 308.013,352.625 L310.272,352.693 z M301.775,354.643 C299.564,355.858 296.796,355.011 295.606,352.754 C294.415,350.498 295.245,347.672 297.457,346.457 C299.667,345.242 302.435,346.09 303.626,348.346 C304.816,350.603 303.986,353.427 301.775,354.643 z" fill="#000000"/>
      </g>
      <g>
        <path d="M255.155,329.472 C255.839,316.8 260.397,297.794 280.908,297.341 C301.42,297.794 305.978,316.8 306.662,329.472" fill="#A4A4A4"/>
        <path d="M255.155,329.472 C255.839,316.8 260.397,297.794 280.908,297.341 C301.42,297.794 305.978,316.8 306.662,329.472" fill-opacity="0" stroke="#000000" stroke-width="2"/>
      </g>
      <g>
        <path d="M255.155,329.472 L305.522,329.472" fill="#000000"/>
        <path d="M255.155,329.472 L305.522,329.472" fill-opacity="0" stroke="#000000" stroke-width="2"/>
      </g>
      <g>
        <path d="M269.333,322.224 L291.344,322.224" fill="#000000"/>
        <path d="M269.333,322.224 L291.344,322.224" fill-opacity="0" stroke="#000000" stroke-width="2"/>
      </g>
      <g>
        <g>
          <path d="M264.465,310.05 L276.651,310.125" fill="#000000"/>
          <path d="M264.465,310.05 L276.651,310.125" fill-opacity="0" stroke="#000000" stroke-width="2"/>
        </g>
        <g>
          <path d="M284.482,310.05 L296.668,310.125" fill="#000000"/>
          <path d="M284.482,310.05 L296.668,310.125" fill-opacity="0" stroke="#000000" stroke-width="2"/>
        </g>
      </g>
      <g>
        <path d="M264.465,302.953 L257.559,293.931" fill="#000000"/>
        <path d="M264.465,302.953 L257.559,293.931" fill-opacity="0" stroke="#000000" stroke-width="2"/>
      </g>
      <g>
        <path d="M258.64,289.836 C258.64,292.335 256.599,294.362 254.081,294.362 C251.564,294.362 249.523,292.335 249.523,289.836 C249.523,287.337 251.564,285.311 254.081,285.311 C256.599,285.311 258.64,287.337 258.64,289.836" fill="#000000"/>
        <path d="M258.64,289.836 C258.64,292.335 256.599,294.362 254.081,294.362 C251.564,294.362 249.523,292.335 249.523,289.836 C249.523,287.337 251.564,285.311 254.081,285.311 C256.599,285.311 258.64,287.337 258.64,289.836" fill-opacity="0" stroke="#000000" stroke-width="2"/>
      </g>
      <g>
        <path d="M296.668,302.953 L303.574,293.931" fill="#000000"/>
        <path d="M296.668,302.953 L303.574,293.931" fill-opacity="0" stroke="#000000" stroke-width="2"/>
      </g>
      <g>
        <path d="M302.493,289.836 C302.493,292.335 304.534,294.362 307.051,294.362 C309.569,294.362 311.609,292.335 311.609,289.836 C311.609,287.337 309.569,285.311 307.051,285.311 C304.534,285.311 302.493,287.337 302.493,289.836" fill="#000000"/>
        <path d="M302.493,289.836 C302.493,292.335 304.534,294.362 307.051,294.362 C309.569,294.362 311.609,292.335 311.609,289.836 C311.609,287.337 309.569,285.311 307.051,285.311 C304.534,285.311 302.493,287.337 302.493,289.836" fill-opacity="0" stroke="#000000" stroke-width="2"/>
      </g>
    </g>
    <g>
      <g>
        <path d="M109.862,395.313 L164.606,395.313 L164.606,471.883 L109.862,471.883 L109.862,395.313 z" fill="#FFEDC9"/>
        <path d="M109.862,395.313 L164.606,395.313 L164.606,471.883 L109.862,471.883 L109.862,395.313 z" fill-opacity="0" stroke="#000000" stroke-width="2"/>
      </g>
      <g>
        <path d="M105.262,401.117 L160.007,401.117 L160.007,477.687 L105.262,477.687 L105.262,401.117 z" fill="#FFEDC9"/>
        <path d="M105.262,401.117 L160.007,401.117 L160.007,477.687 L105.262,477.687 L105.262,401.117 z" fill-opacity="0" stroke="#000000" stroke-width="2"/>
      </g>
      <g>
        <path d="M100.222,406.816 L154.967,406.816 L154.967,483.386 L100.222,483.386 L100.222,406.816 z" fill="#FFEDC9"/>
        <path d="M100.222,406.816 L154.967,406.816 L154.967,483.386 L100.222,483.386 L100.222,406.816 z" fill-opacity="0" stroke="#000000" stroke-width="2"/>
      </g>
      <text transform="matrix(1, 0, 0, 1, 128.637, 447.513)">
        <tspan x="-25.83" y="-34.498" font-family="Consolas" font-size="2" fill="#94064B">class</tspan>
        <tspan x="-20.332" y="-34.498" font-family="Consolas" font-size="2" fill="#262626"> </tspan>
        <tspan x="-19.232" y="-34.498" font-family="Consolas" font-size="2" fill="#654792">AccessorProperty</tspan>
        <tspan x="-1.639" y="-34.498" font-family="Consolas" font-size="2" fill="#262626">(</tspan>
        <tspan x="-0.539" y="-34.498" font-family="Consolas" font-size="2" fill="#0E72A4">object</tspan>
        <tspan x="6.059" y="-34.498" font-family="Consolas" font-size="2" fill="#262626">):</tspan>
        <tspan x="-25.83" y="-30.498" font-family="Consolas" font-size="2" fill="#262626">    </tspan>
        <tspan x="-21.432" y="-30.498" font-family="Consolas" font-size="2" fill="#13247E">"""Descriptor for implementing accessor </tspan>
        <tspan x="-25.83" y="-28.498" font-family="Consolas" font-size="2" fill="#13247E">properties like Series.str</tspan>
        <tspan x="-25.83" y="-24.498" font-family="Consolas" font-size="2" fill="#13247E">    """</tspan>
        <tspan x="-25.83" y="-20.498" font-family="Consolas" font-size="2" fill="#262626">    </tspan>
        <tspan x="-21.432" y="-20.498" font-family="Consolas" font-size="2" fill="#94064B">def</tspan>
        <tspan x="-18.133" y="-20.498" font-family="Consolas" font-size="2" fill="#262626"> </tspan>
        <tspan x="-17.033" y="-20.498" font-family="Consolas" font-size="2" fill="#0E72A4">__init__</tspan>
        <tspan x="-8.236" y="-20.498" font-family="Consolas" font-size="2" fill="#262626">(self, accessor_cls, </tspan>
        <tspan x="-25.83" y="-18.498" font-family="Consolas" font-size="2" fill="#262626">construct_accessor):</tspan>
        <tspan x="-25.83" y="-14.498" font-family="Consolas" font-size="2" fill="#262626">        </tspan>
        <tspan x="-17.033" y="-14.498" font-family="Consolas" font-size="2" fill="#E65334">self</tspan>
        <tspan x="-12.635" y="-14.498" font-family="Consolas" font-size="2" fill="#262626">.accessor_cls </tspan>
        <tspan x="2.76" y="-14.498" font-family="Consolas" font-size="2" fill="#94064B">=</tspan>
        <tspan x="3.859" y="-14.498" font-family="Consolas" font-size="2" fill="#262626"> accessor_cls</tspan>
        <tspan x="-25.83" y="-10.498" font-family="Consolas" font-size="2" fill="#262626">        </tspan>
        <tspan x="-17.033" y="-10.498" font-family="Consolas" font-size="2" fill="#E65334">self</tspan>
        <tspan x="-12.635" y="-10.498" font-family="Consolas" font-size="2" fill="#262626">.construct_accessor </tspan>
        <tspan x="9.357" y="-10.498" font-family="Consolas" font-size="2" fill="#94064B">=</tspan>
        <tspan x="10.457" y="-10.498" font-family="Consolas" font-size="2" fill="#262626"> </tspan>
        <tspan x="-25.83" y="-8.498" font-family="Consolas" font-size="2" fill="#262626">construct_accessor</tspan>
        <tspan x="-25.83" y="-4.498" font-family="Consolas" font-size="2" fill="#262626">        </tspan>
        <tspan x="-17.033" y="-4.498" font-family="Consolas" font-size="2" fill="#E65334">self</tspan>
        <tspan x="-12.635" y="-4.498" font-family="Consolas" font-size="2" fill="#262626">.</tspan>
        <tspan x="-11.535" y="-4.498" font-family="Consolas" font-size="2" fill="#0E72A4">__doc__</tspan>
        <tspan x="-3.838" y="-4.498" font-family="Consolas" font-size="2" fill="#262626"> </tspan>
        <tspan x="-2.738" y="-4.498" font-family="Consolas" font-size="2" fill="#94064B">=</tspan>
        <tspan x="-1.639" y="-4.498" font-family="Consolas" font-size="2" fill="#262626"> accessor_cls.</tspan>
        <tspan x="13.756" y="-4.498" font-family="Consolas" font-size="2" fill="#0E72A4">__doc__</tspan>
        <tspan x="-25.83" y="5.502" font-family="Consolas" font-size="2" fill="#262626">    </tspan>
        <tspan x="-21.432" y="5.502" font-family="Consolas" font-size="2" fill="#94064B">def</tspan>
        <tspan x="-18.133" y="5.502" font-family="Consolas" font-size="2" fill="#262626"> </tspan>
        <tspan x="-17.033" y="5.502" font-family="Consolas" font-size="2" fill="#0E72A4">__get__</tspan>
        <tspan x="-9.336" y="5.502" font-family="Consolas" font-size="2" fill="#262626">(self, instance, owner</tspan>
        <tspan x="14.855" y="5.502" font-family="Consolas" font-size="2" fill="#94064B">=</tspan>
        <tspan x="15.955" y="5.502" font-family="Consolas" font-size="2" fill="#0E72A4">None</tspan>
        <tspan x="20.354" y="5.502" font-family="Consolas" font-size="2" fill="#262626">):</tspan>
        <tspan x="-25.83" y="9.502" font-family="Consolas" font-size="2" fill="#262626">        </tspan>
        <tspan x="-17.033" y="9.502" font-family="Consolas" font-size="2" fill="#94064B">if</tspan>
        <tspan x="-14.834" y="9.502" font-family="Consolas" font-size="2" fill="#262626"> instance </tspan>
        <tspan x="-3.838" y="9.502" font-family="Consolas" font-size="2" fill="#94064B">is</tspan>
        <tspan x="-1.639" y="9.502" font-family="Consolas" font-size="2" fill="#262626"> </tspan>
        <tspan x="-0.539" y="9.502" font-family="Consolas" font-size="2" fill="#0E72A4">None</tspan>
        <tspan x="3.859" y="9.502" font-family="Consolas" font-size="2" fill="#262626">:</tspan>
        <tspan x="-25.83" y="13.502" font-family="Consolas" font-size="2" fill="#262626">            </tspan>
        <tspan x="-12.635" y="13.502" font-family="Consolas" font-size="2" fill="#848684"># this ensures that </tspan>
        <tspan x="-25.83" y="15.502" font-family="Consolas" font-size="2" fill="#848684">Series.str.&lt;method&gt; is well defined</tspan>
        <tspan x="-25.83" y="19.502" font-family="Consolas" font-size="2" fill="#262626">            </tspan>
        <tspan x="-12.635" y="19.502" font-family="Consolas" font-size="2" fill="#94064B">return</tspan>
        <tspan x="-6.037" y="19.502" font-family="Consolas" font-size="2" fill="#262626"> </tspan>
        <tspan x="-4.937" y="19.502" font-family="Consolas" font-size="2" fill="#E65334">self</tspan>
        <tspan x="-0.539" y="19.502" font-family="Consolas" font-size="2" fill="#262626">.accessor_cls</tspan>
        <tspan x="-25.83" y="23.502" font-family="Consolas" font-size="2" fill="#262626">        </tspan>
        <tspan x="-17.033" y="23.502" font-family="Consolas" font-size="2" fill="#94064B">return</tspan>
        <tspan x="-10.436" y="23.502" font-family="Consolas" font-size="2" fill="#262626"> </tspan>
        <tspan x="-25.83" y="25.502" font-family="Consolas" font-size="2" fill="#E65334">self</tspan>
        <tspan x="-21.432" y="25.502" font-family="Consolas" font-size="2" fill="#262626">.construct_accessor(instance)</tspan>
      </text>
    </g>
    <g>
      <g>
        <path d="M115.21,412.866 L180.848,412.866 L180.848,487.988 L115.21,487.988 L115.21,412.866 z" fill="#FFECC9"/>
        <path d="M115.21,412.866 L180.848,412.866 L180.848,487.988 L115.21,487.988 L115.21,412.866 z" fill-opacity="0" stroke="#000000" stroke-width="2" stroke-linejoin="round"/>
      </g>
      <text transform="matrix(1, 0, 0, 1, 131.575, 469.642)">
        <tspan x="-12.51" y="-8" font-family="HelveticaNeue-Bold" font-size="9" fill="#000000">10101</tspan>
        <tspan x="-12.51" y="3" font-family="HelveticaNeue-Bold" font-size="9" fill="#000000">00101</tspan>
        <tspan x="-12.51" y="14" font-family="HelveticaNeue-Bold" font-size="9" fill="#000000">01010</tspan>
      </text>
      <g>
        <path d="M144.746,447.229 C145.97,446.448 147.08,445.495 148.041,444.403 L151.506,446.446 L154.661,440.868 L151.203,438.83 C151.642,437.46 151.901,436.006 151.95,434.5 L155.884,433.792 L154.787,427.449 L150.854,428.157 C150.31,426.781 149.581,425.503 148.697,424.354 L151.268,421.226 L146.434,417.086 L143.865,420.211 C142.61,419.525 141.251,419.012 139.819,418.704 L139.819,414.629 L133.509,414.629 L133.509,418.704 C132.077,419.012 130.718,419.525 129.463,420.211 L126.894,417.086 L122.06,421.226 L124.631,424.354 C123.747,425.503 123.018,426.782 122.474,428.157 L118.541,427.449 L117.445,433.792 L121.379,434.5 C121.427,436.006 121.686,437.46 122.126,438.83 L118.667,440.868 L121.822,446.446 L125.288,444.404 C126.248,445.496 127.358,446.448 128.582,447.229 L127.215,451.065 L133.144,453.267 L134.51,449.437 C135.214,449.539 135.933,449.593 136.664,449.593 C137.395,449.593 138.114,449.539 138.818,449.437 L140.184,453.268 L146.113,451.065 L144.746,447.229 z M136.664,442.206 C132.22,442.206 128.605,438.516 128.605,433.981 C128.605,429.445 132.22,425.755 136.664,425.755 C141.107,425.755 144.722,429.445 144.722,433.981 C144.722,438.516 141.107,442.206 136.664,442.206 z" fill="#000000"/>
        <path d="M171.869,452.066 L169.149,452.964 C168.63,452.044 167.989,451.21 167.25,450.485 L168.771,448.009 L164.943,445.561 L163.424,448.035 C162.468,447.675 161.455,447.448 160.41,447.375 L160.015,444.485 L155.541,445.122 L155.936,448.011 C154.95,448.374 154.036,448.875 153.213,449.488 L151.09,447.531 L148.063,450.954 L150.188,452.913 C149.673,453.816 149.28,454.797 149.028,455.827 L146.17,455.721 L146.007,460.329 L148.864,460.434 C149.044,461.498 149.369,462.501 149.813,463.429 L147.559,465.223 L150.335,468.859 L152.594,467.062 C153.381,467.739 154.26,468.302 155.204,468.733 L154.605,471.591 L159.022,472.554 L159.621,469.701 C160.129,469.702 160.644,469.667 161.162,469.593 C161.681,469.52 162.185,469.409 162.674,469.266 L164.014,471.844 L168.005,469.684 L166.663,467.103 C167.457,466.425 168.15,465.638 168.726,464.767 L171.38,465.865 L173.077,461.593 L170.428,460.496 C170.607,459.481 170.65,458.424 170.539,457.351 L173.26,456.452 L171.869,452.066 z M160.448,464.356 C157.297,464.804 154.377,462.553 153.938,459.337 C153.499,456.121 155.705,453.14 158.855,452.692 C162.006,452.244 164.926,454.496 165.365,457.712 C165.804,460.927 163.598,463.908 160.448,464.356 z" fill="#000000"/>
        <path d="M177.963,436.088 L178.068,432.449 L175.813,432.381 C175.671,431.579 175.419,430.785 175.048,430.022 L176.819,428.593 L174.609,425.737 L172.838,427.165 C172.206,426.63 171.508,426.193 170.766,425.863 L171.224,423.604 L167.732,422.866 L167.274,425.124 C166.469,425.125 165.659,425.241 164.865,425.48 L163.796,423.452 L160.656,425.178 L161.725,427.206 C161.094,427.751 160.552,428.378 160.108,429.062 L158.01,428.21 L156.691,431.592 L158.791,432.446 C158.653,433.259 158.626,434.094 158.717,434.927 L156.573,435.651 L157.692,439.107 L159.836,438.384 C160.255,439.12 160.766,439.772 161.345,440.334 L160.159,442.294 L163.193,444.206 L164.381,442.243 C165.146,442.523 165.948,442.693 166.762,442.747 L167.088,445.03 L170.617,444.504 L170.292,442.224 C170.669,442.082 171.04,441.912 171.404,441.712 C171.768,441.513 172.112,441.289 172.435,441.046 L174.121,442.578 L176.493,439.86 L174.806,438.326 C175.21,437.603 175.511,436.825 175.703,436.019 L177.963,436.088 z M169.466,438.037 C167.254,439.252 164.486,438.405 163.296,436.149 C162.105,433.892 162.935,431.066 165.147,429.852 C167.357,428.636 170.125,429.484 171.316,431.741 C172.506,433.998 171.676,436.822 169.466,438.037 z" fill="#000000"/>
      </g>
      <g>
        <path d="M122.845,412.866 C123.529,400.195 128.087,381.188 148.599,380.736 C169.11,381.188 173.669,400.195 174.352,412.866" fill="#A4A4A4"/>
        <path d="M122.845,412.866 C123.529,400.195 128.087,381.188 148.599,380.736 C169.11,381.188 173.669,400.195 174.352,412.866" fill-opacity="0" stroke="#000000" stroke-width="2"/>
      </g>
      <g>
        <path d="M122.845,412.866 L173.213,412.866" fill="#000000"/>
        <path d="M122.845,412.866 L173.213,412.866" fill-opacity="0" stroke="#000000" stroke-width="2"/>
      </g>
      <g>
        <path d="M137.023,405.618 L159.035,405.618" fill="#000000"/>
        <path d="M137.023,405.618 L159.035,405.618" fill-opacity="0" stroke="#000000" stroke-width="2"/>
      </g>
      <g>
        <g>
          <path d="M132.155,393.444 L144.341,393.52" fill="#000000"/>
          <path d="M132.155,393.444 L144.341,393.52" fill-opacity="0" stroke="#000000" stroke-width="2"/>
        </g>
        <g>
          <path d="M152.172,393.444 L164.358,393.52" fill="#000000"/>
          <path d="M152.172,393.444 L164.358,393.52" fill-opacity="0" stroke="#000000" stroke-width="2"/>
        </g>
      </g>
      <g>
        <path d="M132.155,386.347 L125.249,377.326" fill="#000000"/>
        <path d="M132.155,386.347 L125.249,377.326" fill-opacity="0" stroke="#000000" stroke-width="2"/>
      </g>
      <g>
        <path d="M126.33,373.23 C126.33,375.73 124.289,377.756 121.772,377.756 C119.254,377.756 117.214,375.73 117.214,373.23 C117.214,370.731 119.254,368.705 121.772,368.705 C124.289,368.705 126.33,370.731 126.33,373.23" fill="#000000"/>
        <path d="M126.33,373.23 C126.33,375.73 124.289,377.756 121.772,377.756 C119.254,377.756 117.214,375.73 117.214,373.23 C117.214,370.731 119.254,368.705 121.772,368.705 C124.289,368.705 126.33,370.731 126.33,373.23" fill-opacity="0" stroke="#000000" stroke-width="2"/>
      </g>
      <g>
        <path d="M164.358,386.347 L171.264,377.326" fill="#000000"/>
        <path d="M164.358,386.347 L171.264,377.326" fill-opacity="0" stroke="#000000" stroke-width="2"/>
      </g>
      <g>
        <path d="M170.184,373.23 C170.184,375.73 172.224,377.756 174.742,377.756 C177.259,377.756 179.3,375.73 179.3,373.23 C179.3,370.731 177.259,368.705 174.742,368.705 C172.224,368.705 170.184,370.731 170.184,373.23" fill="#000000"/>
        <path d="M170.184,373.23 C170.184,375.73 172.224,377.756 174.742,377.756 C177.259,377.756 179.3,375.73 179.3,373.23 C179.3,370.731 177.259,368.705 174.742,368.705 C172.224,368.705 170.184,370.731 170.184,373.23" fill-opacity="0" stroke="#000000" stroke-width="2"/>
      </g>
    </g>
    <g>
      <path d="M204.127,239.618 L240.898,291.605" fill="#FFA720"/>
      <g>
        <path d="M204.127,239.618 L228.772,274.46" fill-opacity="0" stroke="#D09B00" stroke-width="6"/>
        <path d="M223.873,277.925 L238.011,287.523 L233.67,270.995 z" fill="#D09B00" fill-opacity="1" stroke="#D09B00" stroke-width="6" stroke-opacity="1"/>
      </g>
    </g>
    <g>
      <path d="M322.297,301.245 L371.434,249.687" fill="#FFA720"/>
      <g>
        <path d="M322.297,301.245 L356.946,264.889" fill-opacity="0" stroke="#D09B00" stroke-width="6"/>
        <path d="M361.289,269.028 L367.984,253.306 L352.602,260.749 z" fill="#D09B00" fill-opacity="1" stroke="#D09B00" stroke-width="6" stroke-opacity="1"/>
      </g>
    </g>
    <g>
      <path d="M322.297,393.695 L394.451,432.268" fill="#FFA720"/>
      <g>
        <path d="M322.297,393.695 L375.931,422.368" fill-opacity="0" stroke="#D09B00" stroke-width="6"/>
        <path d="M373.103,427.659 L390.041,429.911 L378.76,417.077 z" fill="#D09B00" fill-opacity="1" stroke="#D09B00" stroke-width="6" stroke-opacity="1"/>
      </g>
    </g>
    <g>
      <path d="M240.898,404.593 L188.875,442.819" fill="#FFA720"/>
      <g>
        <path d="M240.898,404.593 L205.798,430.385" fill-opacity="0" stroke="#D09B00" stroke-width="6"/>
        <path d="M202.245,425.55 L192.904,439.859 L209.35,435.22 z" fill="#D09B00" fill-opacity="1" stroke="#D09B00" stroke-width="6" stroke-opacity="1"/>
      </g>
    </g>
    <g>
      <g>
        <path d="M222.532,251.333 L222.532,254.648 C222.532,258.261 226.643,261.189 231.715,261.189 C236.787,261.189 240.898,258.261 240.898,254.648 L240.898,250.923" fill="#F0E000"/>
        <path d="M222.532,251.333 L222.532,254.648 C222.532,258.261 226.643,261.189 231.715,261.189 C236.787,261.189 240.898,258.261 240.898,254.648 L240.898,250.923" fill-opacity="0" stroke="#000000" stroke-width="1"/>
      </g>
      <g>
        <path d="M231.715,257.875 C226.643,257.875 222.532,254.946 222.532,251.333 C222.532,247.72 226.643,244.791 231.715,244.791 C236.787,244.791 240.898,247.72 240.898,251.333 C240.898,254.946 236.787,257.875 231.715,257.875 z" fill="#F0E000"/>
        <path d="M231.715,257.875 C226.643,257.875 222.532,254.946 222.532,251.333 C222.532,247.72 226.643,244.791 231.715,244.791 C236.787,244.791 240.898,247.72 240.898,251.333 C240.898,254.946 236.787,257.875 231.715,257.875 z" fill-opacity="0" stroke="#000000" stroke-width="1"/>
      </g>
      <text transform="matrix(0.916, -0.4, 0.4, 0.916, 231.215, 250.833)">
        <tspan x="-2.038" y="2.814" font-family="HelveticaNeue-CondensedBlack" font-size="8" fill="#000000">E</tspan>
      </text>
    </g>
    <g>
      <g>
        <path d="M230.407,248.09 L230.407,251.404 C230.407,255.017 234.519,257.946 239.591,257.946 C244.662,257.946 248.774,255.017 248.774,251.404 L248.774,247.68" fill="#F0E000"/>
        <path d="M230.407,248.09 L230.407,251.404 C230.407,255.017 234.519,257.946 239.591,257.946 C244.662,257.946 248.774,255.017 248.774,251.404 L248.774,247.68" fill-opacity="0" stroke="#000000" stroke-width="1"/>
      </g>
      <g>
        <path d="M239.591,254.631 C234.519,254.631 230.407,251.702 230.407,248.09 C230.407,244.477 234.519,241.548 239.591,241.548 C244.662,241.548 248.774,244.477 248.774,248.09 C248.774,251.702 244.662,254.631 239.591,254.631 z" fill="#F0E000"/>
        <path d="M239.591,254.631 C234.519,254.631 230.407,251.702 230.407,248.09 C230.407,244.477 234.519,241.548 239.591,241.548 C244.662,241.548 248.774,244.477 248.774,248.09 C248.774,251.702 244.662,254.631 239.591,254.631 z" fill-opacity="0" stroke="#000000" stroke-width="1"/>
      </g>
      <text transform="matrix(0.916, -0.4, 0.4, 0.916, 239.091, 247.59)">
        <tspan x="-2.038" y="2.814" font-family="HelveticaNeue-CondensedBlack" font-size="8" fill="#000000">E</tspan>
      </text>
    </g>
    <g>
      <g>
        <path d="M222.532,239.83 L222.532,243.145 C222.532,246.758 226.643,249.687 231.715,249.687 C236.787,249.687 240.898,246.758 240.898,243.145 L240.898,239.421" fill="#F0E000"/>
        <path d="M222.532,239.83 L222.532,243.145 C222.532,246.758 226.643,249.687 231.715,249.687 C236.787,249.687 240.898,246.758 240.898,243.145 L240.898,239.421" fill-opacity="0" stroke="#000000" stroke-width="1"/>
      </g>
      <g>
        <path d="M231.715,246.372 C226.643,246.372 222.532,243.443 222.532,239.83 C222.532,236.218 226.643,233.289 231.715,233.289 C236.787,233.289 240.898,236.218 240.898,239.83 C240.898,243.443 236.787,246.372 231.715,246.372 z" fill="#F0E000"/>
        <path d="M231.715,246.372 C226.643,246.372 222.532,243.443 222.532,239.83 C222.532,236.218 226.643,233.289 231.715,233.289 C236.787,233.289 240.898,236.218 240.898,239.83 C240.898,243.443 236.787,246.372 231.715,246.372 z" fill-opacity="0" stroke="#000000" stroke-width="1"/>
      </g>
      <text transform="matrix(0.916, -0.4, 0.4, 0.916, 231.215, 239.33)">
        <tspan x="-2.038" y="2.814" font-family="HelveticaNeue-CondensedBlack" font-size="8" fill="#000000">E</tspan>
      </text>
    </g>
    <g>
      <g>
        <path d="M218.939,248.09 L218.939,251.404 C218.939,255.017 223.051,257.946 228.122,257.946 C233.194,257.946 237.306,255.017 237.306,251.404 L237.306,247.68" fill="#F0E000"/>
        <path d="M218.939,248.09 L218.939,251.404 C218.939,255.017 223.051,257.946 228.122,257.946 C233.194,257.946 237.306,255.017 237.306,251.404 L237.306,247.68" fill-opacity="0" stroke="#000000" stroke-width="1"/>
      </g>
      <g>
        <path d="M228.122,254.631 C223.051,254.631 218.939,251.702 218.939,248.09 C218.939,244.477 223.051,241.548 228.122,241.548 C233.194,241.548 237.306,244.477 237.306,248.09 C237.306,251.702 233.194,254.631 228.122,254.631 z" fill="#F0E000"/>
        <path d="M228.122,254.631 C223.051,254.631 218.939,251.702 218.939,248.09 C218.939,244.477 223.051,241.548 228.122,241.548 C233.194,241.548 237.306,244.477 237.306,248.09 C237.306,251.702 233.194,254.631 228.122,254.631 z" fill-opacity="0" stroke="#000000" stroke-width="1"/>
      </g>
      <text transform="matrix(0.916, -0.4, 0.4, 0.916, 227.622, 247.59)">
        <tspan x="-2.038" y="2.814" font-family="HelveticaNeue-CondensedBlack" font-size="8" fill="#000000">E</tspan>
      </text>
    </g>
    <g>
      <g>
        <path d="M326.77,257.505 L327.21,260.79 C327.69,264.371 332.154,266.728 337.181,266.054 C342.208,265.381 345.894,261.932 345.414,258.351 L344.919,254.66" fill="#F0E000"/>
        <path d="M326.77,257.505 L327.21,260.79 C327.69,264.371 332.154,266.728 337.181,266.054 C342.208,265.381 345.894,261.932 345.414,258.351 L344.919,254.66" fill-opacity="0" stroke="#000000" stroke-width="1"/>
      </g>
      <g>
        <path d="M336.741,262.769 C331.714,263.443 327.25,261.086 326.77,257.505 C326.29,253.924 329.976,250.475 335.003,249.802 C340.03,249.128 344.494,251.485 344.974,255.066 C345.453,258.647 341.767,262.096 336.741,262.769 z" fill="#F0E000"/>
        <path d="M336.741,262.769 C331.714,263.443 327.25,261.086 326.77,257.505 C326.29,253.924 329.976,250.475 335.003,249.802 C340.03,249.128 344.494,251.485 344.974,255.066 C345.453,258.647 341.767,262.096 336.741,262.769 z" fill-opacity="0" stroke="#000000" stroke-width="1"/>
      </g>
      <text transform="matrix(0.855, -0.518, 0.518, 0.855, 335.372, 255.785)">
        <tspan x="-2.038" y="2.814" font-family="HelveticaNeue-CondensedBlack" font-size="8" fill="#000000">E</tspan>
      </text>
    </g>
    <g>
      <g>
        <path d="M349.191,394.737 L349.191,398.052 C349.191,401.665 353.302,404.593 358.374,404.593 C363.446,404.593 367.557,401.665 367.557,398.052 L367.557,394.327" fill="#F0E000"/>
        <path d="M349.191,394.737 L349.191,398.052 C349.191,401.665 353.302,404.593 358.374,404.593 C363.446,404.593 367.557,401.665 367.557,398.052 L367.557,394.327" fill-opacity="0" stroke="#000000" stroke-width="1"/>
      </g>
      <g>
        <path d="M358.374,401.279 C353.302,401.279 349.191,398.35 349.191,394.737 C349.191,391.124 353.302,388.195 358.374,388.195 C363.446,388.195 367.557,391.124 367.557,394.737 C367.557,398.35 363.446,401.279 358.374,401.279 z" fill="#F0E000"/>
        <path d="M358.374,401.279 C353.302,401.279 349.191,398.35 349.191,394.737 C349.191,391.124 353.302,388.195 358.374,388.195 C363.446,388.195 367.557,391.124 367.557,394.737 C367.557,398.35 363.446,401.279 358.374,401.279 z" fill-opacity="0" stroke="#000000" stroke-width="1"/>
      </g>
      <text transform="matrix(0.916, -0.4, 0.4, 0.916, 357.874, 394.237)">
        <tspan x="-2.038" y="2.814" font-family="HelveticaNeue-CondensedBlack" font-size="8" fill="#000000">E</tspan>
      </text>
    </g>
    <g>
      <g>
        <path d="M232.93,440.734 L232.93,444.048 C232.93,447.661 237.041,450.59 242.113,450.59 C247.185,450.59 251.296,447.661 251.296,444.048 L251.296,440.324" fill="#F0E000"/>
        <path d="M232.93,440.734 L232.93,444.048 C232.93,447.661 237.041,450.59 242.113,450.59 C247.185,450.59 251.296,447.661 251.296,444.048 L251.296,440.324" fill-opacity="0" stroke="#000000" stroke-width="1"/>
      </g>
      <g>
        <path d="M242.113,447.275 C237.041,447.275 232.93,444.347 232.93,440.734 C232.93,437.121 237.041,434.192 242.113,434.192 C247.185,434.192 251.296,437.121 251.296,440.734 C251.296,444.347 247.185,447.275 242.113,447.275 z" fill="#F0E000"/>
        <path d="M242.113,447.275 C237.041,447.275 232.93,444.347 232.93,440.734 C232.93,437.121 237.041,434.192 242.113,434.192 C247.185,434.192 251.296,437.121 251.296,440.734 C251.296,444.347 247.185,447.275 242.113,447.275 z" fill-opacity="0" stroke="#000000" stroke-width="1"/>
      </g>
      <text transform="matrix(0.916, -0.4, 0.4, 0.916, 241.613, 440.234)">
        <tspan x="-2.038" y="2.814" font-family="HelveticaNeue-CondensedBlack" font-size="8" fill="#000000">E</tspan>
      </text>
    </g>
    <g>
      <g>
        <path d="M227.885,434.776 L227.885,438.091 C227.885,441.704 231.997,444.633 237.068,444.633 C242.14,444.633 246.251,441.704 246.251,438.091 L246.251,434.367" fill="#F0E000"/>
        <path d="M227.885,434.776 L227.885,438.091 C227.885,441.704 231.997,444.633 237.068,444.633 C242.14,444.633 246.251,441.704 246.251,438.091 L246.251,434.367" fill-opacity="0" stroke="#000000" stroke-width="1"/>
      </g>
      <g>
        <path d="M237.068,441.318 C231.997,441.318 227.885,438.389 227.885,434.776 C227.885,431.163 231.997,428.235 237.068,428.235 C242.14,428.235 246.251,431.163 246.251,434.776 C246.251,438.389 242.14,441.318 237.068,441.318 z" fill="#F0E000"/>
        <path d="M237.068,441.318 C231.997,441.318 227.885,438.389 227.885,434.776 C227.885,431.163 231.997,428.235 237.068,428.235 C242.14,428.235 246.251,431.163 246.251,434.776 C246.251,438.389 242.14,441.318 237.068,441.318 z" fill-opacity="0" stroke="#000000" stroke-width="1"/>
      </g>
      <text transform="matrix(0.916, -0.4, 0.4, 0.916, 236.568, 434.276)">
        <tspan x="-2.038" y="2.814" font-family="HelveticaNeue-CondensedBlack" font-size="8" fill="#000000">E</tspan>
      </text>
    </g>
  </g>
</svg>
